<svg width="8" height="19" viewBox="0 0 8 19" fill="none" xmlns="http://www.w3.org/2000/svg">
<path d="M7.4205 9.76918L7.42559 11.1967C6.60647 11.1997 6.03888 11.365 5.72281 11.6929C5.40674 12.0207 5.25001 12.5492 5.25261 13.2784L5.25822 14.848C5.26134 15.7239 5.14311 16.4251 4.90351 16.9515C4.65919 17.4827 4.31971 17.884 3.88507 18.1554C3.4457 18.4269 2.92551 18.6087 2.32451 18.7008C1.72351 18.7929 1.06553 18.8402 0.350572 18.8428L0.342509 16.5843C0.901218 16.5823 1.32709 16.5074 1.62012 16.3595C1.90844 16.2165 2.10414 15.9932 2.20723 15.6898C2.31033 15.3912 2.36106 15.0122 2.35942 14.5529L2.35201 12.4791C2.35073 12.1192 2.41579 11.7757 2.5472 11.4485C2.67863 11.1261 2.92381 10.8387 3.28276 10.5865C3.64173 10.339 4.15476 10.1407 4.82184 9.99153C5.48894 9.8471 6.35516 9.77299 7.4205 9.76918ZM0.286399 0.867038C1.00136 0.864485 1.65966 0.907117 2.2613 0.994932C2.86294 1.08275 3.38442 1.26081 3.82572 1.52912C4.26228 1.79745 4.60462 2.19633 4.85272 2.72575C5.09607 3.25045 5.21931 3.95077 5.22244 4.82671L5.22807 6.40341C5.23067 7.13257 5.39117 7.65994 5.70957 7.98551C6.02797 8.31108 6.59673 8.4724 7.41586 8.46948L7.42095 9.89702C6.35562 9.90083 5.48889 9.83053 4.82075 9.68613C4.15264 9.54647 3.63821 9.35181 3.27746 9.10215C2.91674 8.85723 2.66951 8.57165 2.53576 8.24542C2.40204 7.92392 2.33453 7.58089 2.33323 7.21631L2.32582 5.14246C2.3242 4.68791 2.27077 4.31168 2.16554 4.01376C2.06029 3.7111 1.863 3.48927 1.57367 3.34825C1.27959 3.20252 0.853196 3.13065 0.294487 3.13265L0.286399 0.867038ZM7.41586 8.46948L7.42559 11.1967L4.87589 11.2058L4.86616 8.47858L7.41586 8.46948Z" fill="#8900F5"/>
</svg>
